HIERARCHY
ROOT hip
{
	OFFSET 0.000000 0.000000 0.000000 
	CHANNELS 6 Xposition Yposition Zposition Xrotation Zrotation Yrotation
	JOINT abdomen
	{
		OFFSET 0.000000 3.402643 0.000000 
		CHANNELS 3 Xrotation Zrotation Yrotation
		JOINT chest
		{
			OFFSET 0.000000 8.438565 -0.680529 
			CHANNELS 3 Xrotation Zrotation Yrotation
			JOINT neck
			{
				OFFSET 0.000000 10.207942 -0.272212 
				CHANNELS 3 Xrotation Zrotation Yrotation
				JOINT head
				{
					OFFSET 0.000000 3.130431 0.000000 
					CHANNELS 3 Xrotation Zrotation Yrotation
					End Site
					{
						OFFSET 0.000000 3.130435 0.000000 
					}
				}
			}
			JOINT lCollar
			{
				OFFSET 3.470700 6.669187 -0.816635 
				CHANNELS 3 Yrotation Zrotation Xrotation
				JOINT lShldr
				{
					OFFSET 3.198488 0.000000 0.000000 
					CHANNELS 3 Zrotation Yrotation Xrotation
					JOINT lForeArm
					{
						OFFSET 10.139888 0.000000 0.000000 
						CHANNELS 3 Yrotation Zrotation Xrotation
						JOINT lHand
						{
							OFFSET 8.370511 0.000000 0.000000 
							CHANNELS 3 Zrotation Yrotation Xrotation
							End Site
							{
								OFFSET 4.083176 0.000000 0.000000 
							}
						}
					}
				}
			}
			JOINT rCollar
			{
				OFFSET -3.470700 6.669187 -0.816635 
				CHANNELS 3 Yrotation Zrotation Xrotation
				JOINT rShldr
				{
					OFFSET -3.198488 0.000000 0.000000 
					CHANNELS 3 Zrotation Yrotation Xrotation
					JOINT rForeArm
					{
						OFFSET -10.139888 0.000000 0.000000 
						CHANNELS 3 Yrotation Zrotation Xrotation
						JOINT rHand
						{
							OFFSET -8.370511 0.000000 0.000000 
							CHANNELS 3 Zrotation Yrotation Xrotation
							End Site
							{
								OFFSET -4.083176 0.000000 0.000000 
							}
						}
					}
				}
			}
		}
	}
	JOINT lThigh
	{
		OFFSET 5.308129 -1.633274 1.361059 
		CHANNELS 3 Xrotation Zrotation Yrotation
		JOINT lShin
		{
			OFFSET -2.041588 -20.007561 0.000000 
			CHANNELS 3 Xrotation Zrotation Yrotation
			JOINT lFoot
			{
				OFFSET 0.000000 -19.190928 -1.224953 
				CHANNELS 3 Xrotation Yrotation Zrotation
				End Site
				{
					OFFSET 0.000000 -2.449906 4.627600 
				}
			}
		}
	}
	JOINT rThigh
	{
		OFFSET -5.308129 -1.633274 1.361059 
		CHANNELS 3 Xrotation Zrotation Yrotation
		JOINT rShin
		{
			OFFSET 2.041588 -20.007561 0.000000 
			CHANNELS 3 Xrotation Zrotation Yrotation
			JOINT rFoot
			{
				OFFSET 0.000000 -19.190928 -1.224953 
				CHANNELS 3 Xrotation Yrotation Zrotation
				End Site
				{
					OFFSET 0.000000 -2.449906 4.627600 
				}
			}
		}
	}
}
MOTION
Frames: 16
Frame Time: 0.016667
13.327967 47.402561 -62.757294 16.433832 6.135573 -27.720974 61.646030 -2.066905 -5.751725 11.258220 -2.294907 0.361101 -8.703466 4.691558 -0.978845 -19.797306 -6.845587 31.765970 -22.837076 3.771722 0.197154 -32.182079 -32.171444 -3.272768 -96.829720 5.000000 5.090374 -3.064410 2.965387 -45.000000 19.308058 2.489449 -0.126729 81.169548 44.721607 45.000000 104.566498 -5.000000 7.091244 1.472347 -17.972162 8.025862 -52.866486 18.151186 16.442385 90.028000 0.652474 -13.447536 -18.235590 7.593421 -7.676957 -56.873142 5.390688 4.652234 54.359932 7.150168 11.088733 -17.162445 -17.184534 -4.309300 
13.471529 47.536293 -63.221748 16.626873 6.358259 -27.467781 61.479115 -2.079292 -5.777326 11.332508 -2.304644 0.136218 -8.667425 4.865335 -1.005130 -19.898314 -6.730756 31.737400 -22.827787 3.908258 0.204196 -32.336960 -32.221470 -3.210668 -96.712997 5.000000 4.998853 -3.153103 2.835155 -45.000000 19.503824 2.684501 -0.136834 80.849335 44.703842 45.000000 104.679054 -5.000000 7.144989 1.465668 -18.036392 8.105190 -51.575008 16.996805 16.840950 88.253250 0.262831 -13.745266 -19.932882 7.309167 -7.286846 -57.025719 5.340338 5.070327 52.885506 7.290966 10.676231 -15.806198 -17.304543 -4.113082 
13.627690 47.658066 -63.683487 16.842104 6.526254 -27.270903 61.308830 -2.062799 -5.789469 11.398137 -2.343654 -0.059359 -8.611906 4.989369 -1.033725 -19.962067 -6.705136 31.745934 -22.808746 4.044794 0.211236 -32.477882 -32.201355 -3.182179 -96.567451 5.000000 4.865245 -3.238315 2.585392 -45.000000 19.748304 2.821037 -0.143907 80.613152 44.670925 45.000000 104.747772 -5.000000 7.186844 1.468685 -18.115959 8.239407 -50.569546 15.835087 16.793247 86.070213 -0.272898 -13.811966 -22.638792 7.289706 -6.373949 -57.171577 5.291684 5.270782 51.346741 7.361544 10.211366 -14.386277 -17.363306 -3.950247 
13.794991 47.768856 -64.143852 17.061785 6.685456 -27.082825 61.129345 -2.044647 -5.806827 11.473581 -2.402178 -0.235011 -8.545666 5.105219 -1.052106 -20.017773 -6.695425 31.764143 -22.770189 4.181330 0.218276 -32.613411 -32.167965 -3.153337 -96.422852 5.000000 4.727638 -3.320884 2.325797 -45.000000 20.002516 2.938068 -0.149968 80.381577 44.649105 45.000000 104.816521 -5.000000 7.228769 1.461145 -18.194218 8.376542 -49.608253 14.706564 16.666250 83.810303 -0.839813 -13.818455 -25.503536 7.213282 -5.347015 -57.306385 5.261307 5.464039 49.777256 7.437641 9.707400 -12.924855 -17.429562 -3.782669 
13.972659 47.869419 -64.605278 17.273571 6.795676 -26.991737 60.964390 -2.028022 -5.761794 11.538603 -2.450927 -0.411085 -8.457442 5.135653 -1.046872 -20.063126 -6.629696 31.749943 -22.711153 4.243615 0.212308 -32.738373 -32.089359 -3.121859 -96.286362 5.000000 4.616280 -3.374160 2.058692 -45.000000 20.246891 3.025841 -0.154514 80.215508 44.576744 45.000000 104.857269 -5.000000 7.245816 1.457436 -18.276684 8.556863 -48.788200 13.612920 16.375238 81.465828 -1.376425 -13.616513 -28.440868 7.239464 -4.003418 -57.418190 5.243527 5.494626 48.186348 7.498744 9.231874 -11.319652 -17.333826 -3.499777 
14.159653 47.960114 -65.067116 17.462801 6.848477 -26.984375 60.814720 -2.028274 -5.650622 11.593664 -2.499665 -0.596941 -8.329605 5.087381 -1.038702 -20.082247 -6.500230 31.691517 -22.623154 4.214344 0.210794 -32.840557 -31.972429 -3.091956 -96.202553 5.000000 4.570705 -3.397291 1.784153 -45.000000 20.491167 3.074604 -0.157039 80.120613 44.466492 45.000000 104.872643 -5.000000 7.239576 1.436537 -18.358316 8.761693 -48.113628 12.606537 15.918318 79.017105 -1.893163 -13.205879 -31.408430 7.280262 -2.331540 -57.472874 5.251712 5.434056 46.494846 7.554796 8.742558 -9.548816 -17.187181 -3.102931 
14.356809 48.047142 -65.532616 17.666271 6.892585 -26.977028 60.655132 -2.014382 -5.539104 11.648509 -2.548396 -0.772612 -8.200753 5.030927 -1.020328 -20.092958 -6.369938 31.642956 -22.535814 4.181330 0.218276 -32.948456 -31.842611 -3.056685 -96.104073 5.000000 4.508842 -3.420782 1.518453 -45.000000 20.725679 3.123367 -0.159565 80.016182 44.362938 45.000000 104.885384 -5.000000 7.236032 1.416690 -18.449409 8.956360 -47.405807 11.578299 15.463678 76.555161 -2.410596 -12.793245 -34.456154 7.281290 -0.616295 -57.553085 5.272486 5.327036 44.823818 7.577953 8.280619 -7.781052 -17.028694 -2.713295 
14.567005 48.131592 -66.004501 18.002035 6.838593 -27.003731 60.460514 -1.910185 -5.351369 11.655325 -2.626403 -0.929188 -8.109474 4.887583 -0.988811 -20.121267 -6.223382 31.711872 -22.398401 4.175298 0.208768 -33.175236 -31.624319 -3.010537 -96.046394 5.000000 4.460199 -3.385209 1.228037 -45.000000 20.882370 3.100381 -0.167665 80.101097 44.274815 45.000000 104.800308 -5.000000 7.219887 1.419046 -18.462969 9.123049 -47.219032 10.748174 14.714142 74.270332 -2.800248 -12.180665 -35.898293 7.414940 1.269573 -57.731449 5.214637 5.042853 43.008663 7.685961 7.865451 -5.844615 -16.622984 -1.471906 
14.786510 48.216442 -66.481049 18.341984 6.792735 -27.040136 60.256149 -1.796277 -5.160159 11.652698 -2.704393 -1.076008 -8.017660 4.755362 -0.949122 -20.154404 -6.085339 31.781017 -22.251917 4.175274 0.208758 -33.405910 -31.408024 -2.957711 -96.002449 5.000000 4.418814 -3.338870 0.938740 -45.000000 21.038563 3.080851 -0.166646 80.178696 44.184212 45.000000 104.728737 -5.000000 7.214343 1.419348 -18.465034 9.271980 -47.040455 9.931771 13.948697 71.973068 -3.184316 -11.553794 -37.336575 7.547687 3.183423 -57.891788 5.134371 4.770541 41.157906 7.799848 7.454375 -3.918151 -16.136080 -0.237785 
15.012056 48.309425 -66.962296 18.695755 6.743976 -27.126108 60.084034 -1.703488 -4.980435 11.638728 -2.762873 -1.183335 -7.976533 4.629854 -0.929340 -20.189606 -6.013856 31.855463 -22.115856 4.171576 0.217773 -33.689037 -31.143429 -2.906815 -95.999352 5.000000 4.417941 -3.267012 0.637610 -45.000000 21.145758 3.002813 -0.162599 80.318558 44.105690 45.000000 104.615906 -5.000000 7.127010 1.394880 -18.457228 9.477280 -46.984108 9.234511 13.245024 69.848457 -3.434362 -10.923996 -37.944592 7.775658 4.848954 -58.109474 5.008503 4.589757 39.405228 7.940677 7.121627 -2.151778 -15.571388 1.566005 
15.245110 48.410576 -67.448792 19.073242 6.692341 -27.260509 59.925640 -1.647932 -4.834088 11.603474 -2.801854 -1.261868 -7.993586 4.525123 -0.903658 -20.235445 -6.026626 31.915657 -21.988907 4.171576 0.217773 -34.023018 -30.845520 -2.851310 -96.054924 5.000000 4.465034 -3.139762 0.319748 -45.000000 21.213703 2.856514 -0.155019 80.512016 44.035683 45.000000 104.487648 -5.000000 6.983529 1.345410 -18.437057 9.708088 -47.116226 8.651227 12.557659 67.859818 -3.609686 -10.278440 -37.670227 8.208848 6.292913 -58.385544 4.804540 4.505051 37.748619 8.115838 6.855580 -0.502191 -14.834255 4.005308 
15.481930 48.520592 -67.940125 19.452076 6.630353 -27.425114 59.785938 -1.599694 -4.661170 11.558050 -2.840842 -1.320407 -8.010705 4.420392 -0.877971 -20.261145 -6.022799 31.973803 -21.852186 4.171576 0.217773 -34.354897 -30.547543 -2.798218 -96.140060 5.000000 4.525396 -3.013436 0.013441 -45.000000 21.262114 2.700464 -0.146935 80.712341 43.978886 45.000000 104.348709 -5.000000 6.823408 1.308041 -18.408890 9.936623 -47.261806 8.123868 11.869039 65.977570 -3.745677 -9.643952 -37.329468 8.665352 7.656574 -58.693707 4.578387 4.454638 36.182686 8.297479 6.628680 1.032521 -14.036242 6.534367 
15.722684 48.640800 -68.436989 19.885990 6.482489 -27.720886 59.741848 -1.618222 -4.393213 11.452369 -2.870104 -1.369213 -8.116219 4.294882 -0.858983 -20.271868 -6.010688 32.031956 -21.734335 4.175193 0.208725 -34.775299 -30.219517 -2.709154 -96.288895 5.000000 4.633256 -2.830269 -0.228562 -45.000000 21.261137 2.469944 -0.125718 80.946465 43.965630 45.000000 104.117569 -5.000000 6.554005 1.337750 -18.366873 10.080388 -47.568111 7.949409 11.206840 64.333939 -3.895552 -9.171648 -36.561054 9.259784 8.695416 -59.134857 4.335023 4.605420 35.264954 8.498149 6.636498 1.913916 -13.177872 9.714602 
15.965148 48.771313 -68.938660 20.327335 6.316202 -28.045937 59.706974 -1.644189 -4.098619 11.326423 -2.889616 -1.398498 -8.221774 4.169371 -0.839282 -20.268612 -5.989669 32.099792 -21.617147 4.175174 0.208718 -35.198269 -29.878300 -2.618517 -96.469124 5.000000 4.769103 -2.651005 -0.450733 -45.000000 21.241051 2.206624 -0.112074 81.195786 43.957378 45.000000 103.874817 -5.000000 6.271946 1.381044 -18.326628 10.208869 -47.920803 7.848562 10.544507 62.757744 -4.018093 -8.715880 -35.631218 9.808167 9.586502 -59.596596 4.120965 4.788546 34.423988 8.693561 6.659011 2.616717 -12.420177 12.953053 
16.202940 48.911251 -69.442627 20.810444 6.106667 -28.536007 59.696968 -1.777517 -3.676325 11.199986 -2.909140 -1.408264 -8.386384 4.072824 -0.824686 -20.290071 -5.976933 32.167633 -21.510538 4.210587 0.219784 -35.737076 -29.573690 -2.485560 -96.723167 5.000000 4.967972 -2.397016 -0.693011 -45.000000 21.162348 1.894541 -0.095899 81.449333 43.990265 45.000000 103.601669 -5.000000 6.023815 1.432494 -18.318830 10.232228 -48.357876 8.026778 9.982558 61.372952 -4.145746 -8.375239 -34.725754 10.357719 10.298667 -60.177551 3.963155 5.126725 34.385712 8.898899 6.800526 2.775803 -11.641088 15.971909 
16.437708 49.061871 -69.949936 21.354551 5.847369 -29.169889 59.691502 -2.035187 -3.116747 11.053532 -2.948215 -1.388759 -8.610161 4.014894 -0.815928 -20.316031 -5.955941 32.235481 -21.413143 4.278855 0.223303 -36.375759 -29.303503 -2.329207 -97.067207 5.000000 5.244803 -2.090209 -0.951433 -45.000000 21.015276 1.514189 -0.075925 81.732513 44.062672 45.000000 103.301613 -5.000000 5.824891 1.471380 -18.358616 10.142498 -48.871754 8.523490 9.524331 60.179241 -4.262837 -8.170437 -33.771439 10.765640 10.762353 -60.906845 3.886425 5.615651 35.115543 9.109068 7.029852 2.355738 -10.924109 18.721304 
